<?xml version="1.0" encoding="UTF-8" standalone="no"?>
<!DOCTYPE svg PUBLIC "-//W3C//DTD SVG 1.1//EN" "http://www.w3.org/Graphics/SVG/1.1/DTD/svg11.dtd">
<svg width="100%" height="100%" viewBox="0 0 632 577" version="1.1" xmlns="http://www.w3.org/2000/svg" xmlns:xlink="http://www.w3.org/1999/xlink" xml:space="preserve" xmlns:serif="http://www.serif.com/" style="fill-rule:evenodd;clip-rule:evenodd;stroke-linejoin:round;stroke-miterlimit:2;">
    <g transform="matrix(1,0,0,1,-196.169,-189.677)">
        <g transform="matrix(32.4018,0,0,33.0591,801.045,442.943)">
            <g id="onigiri">
                <path d="M0,2.124L-4.987,-5.499C-5.873,-6.853 -7.344,-7.661 -8.921,-7.661C-10.498,-7.661 -11.969,-6.853 -12.855,-5.498L-17.842,2.124C-18.862,3.684 -18.943,5.675 -18.053,7.321C-17.316,8.685 -16.055,9.57 -14.601,9.785C-14.643,9.559 -14.671,9.327 -14.671,9.089L-14.671,4.089C-14.671,2.021 -12.989,0.339 -10.921,0.339L-6.921,0.339C-4.853,0.339 -3.171,2.021 -3.171,4.089L-3.171,9.089C-3.171,9.327 -3.198,9.559 -3.241,9.785C-1.786,9.57 -0.526,8.685 0.211,7.321C1.102,5.675 1.021,3.684 0,2.124" style="fill:rgb(35,31,32);fill-rule:nonzero;"/>
            </g>
        </g>
    </g>
</svg>
